<svg xmlns="http://www.w3.org/2000/svg" width="320" height="320" viewBox="0 0 320 320" fill="none">
  <rect width="320" height="320" fill="transparent"/>
  <g opacity="0.9" stroke="#ffffff" stroke-width="1">
    <path d="M18 26h24M30 14v24"/>
    <path d="M246 40l16 16M262 40l-16 16"/>
    <path d="M148 26h52"/>
    <path d="M70 254h80"/>
    <path d="M36 168h36"/>
    <path d="M190 214h42"/>
  </g>
  <g fill="#ffffff" opacity="0.8" font-family="Arial, Helvetica, sans-serif" font-size="12" letter-spacing="3">
    <text x="18" y="92">CAPDANA</text>
    <text x="154" y="190">CAPDANA</text>
    <text x="88" y="290">CAPDANA</text>
  </g>
  <g fill="#ffffff" opacity="0.75" font-family="Arial, Helvetica, sans-serif" font-size="12" letter-spacing="2">
    <text x="196" y="120">C△P</text>
    <text x="42" y="220">C•A•P</text>
  </g>
  <g opacity="0.7" stroke="#ffffff" stroke-width="1">
    <path d="M120 64h14M128 56v16"/>
    <path d="M212 164l10 10M222 164l-10 10"/>
    <path d="M96 140h10"/>
    <path d="M170 246h10"/>
    <path d="M250 250h10"/>
  </g>
  <g opacity="0.7" fill="#ffffff">
    <circle cx="58" cy="132" r="1.5"/>
    <circle cx="70" cy="132" r="1.5"/>
    <circle cx="82" cy="132" r="1.5"/>
    <circle cx="58" cy="144" r="1.5"/>
    <circle cx="70" cy="144" r="1.5"/>
    <circle cx="82" cy="144" r="1.5"/>
  </g>
  <g opacity="0.7" fill="#ffffff">
    <rect x="240" y="82" width="44" height="10"/>
    <rect x="240" y="96" width="32" height="6"/>
    <rect x="240" y="106" width="38" height="6"/>
    <rect x="240" y="116" width="18" height="6"/>
  </g>
  <g opacity="0.6" fill="#ffffff">
    <rect x="24" y="274" width="3" height="20"/>
    <rect x="32" y="270" width="2" height="22"/>
    <rect x="38" y="268" width="4" height="24"/>
    <rect x="46" y="272" width="2" height="20"/>
  </g>
</svg>
